<?xml version="1.0" encoding="UTF-8" standalone="no"?>
<!DOCTYPE svg PUBLIC "-//W3C//DTD SVG 1.1//EN"
 "http://www.w3.org/Graphics/SVG/1.1/DTD/svg11.dtd">
<!-- Generated by graphviz version 2.36.0 (20140111.2315)
 -->
<!-- Title: ShadowMem Pages: 1 -->
<svg width="735pt" height="209pt"
 viewBox="0.00 0.00 735.00 208.50" xmlns="http://www.w3.org/2000/svg" xmlns:xlink="http://www.w3.org/1999/xlink">
<g id="graph0" class="graph" transform="scale(1 1) rotate(0) translate(4 204.5)">
<title>ShadowMem</title>
<polygon fill="white" stroke="none" points="-4,4 -4,-204.5 731,-204.5 731,4 -4,4"/>
<!-- appMem -->
<g id="node1" class="node"><title>appMem</title>
<polygon fill="none" stroke="black" points="438,-149 438,-185 658,-185 658,-149 438,-149"/>
<text text-anchor="middle" x="461.5" y="-163.3" font-family="Times,serif" font-size="14.00">[0..8]</text>
<polyline fill="none" stroke="black" points="485,-149 485,-185 "/>
<text text-anchor="middle" x="511.5" y="-163.3" font-family="Times,serif" font-size="14.00">[8..16]</text>
<polyline fill="none" stroke="black" points="538,-149 538,-185 "/>
<text text-anchor="middle" x="568" y="-163.3" font-family="Times,serif" font-size="14.00">[16..24]</text>
<polyline fill="none" stroke="black" points="598,-149 598,-185 "/>
<text text-anchor="middle" x="628" y="-163.3" font-family="Times,serif" font-size="14.00">[24..32]</text>
<text text-anchor="middle" x="400" y="-189.3" font-family="Times,serif" font-size="14.00">App Memory</text>
</g>
<!-- shadowWords0 -->
<g id="node2" class="node"><title>shadowWords0</title>
<polygon fill="none" stroke="black" stroke-dasharray="5,2" points="237,-75 237,-111 433,-111 433,-75 237,-75"/>
<text text-anchor="middle" x="261.5" y="-89.3" font-family="Times,serif" font-size="14.00">Slot 0</text>
<polyline fill="none" stroke="black" stroke-dasharray="5,2" points="286,-75 286,-111 "/>
<text text-anchor="middle" x="310.5" y="-89.3" font-family="Times,serif" font-size="14.00">Slot 1</text>
<polyline fill="none" stroke="black" stroke-dasharray="5,2" points="335,-75 335,-111 "/>
<text text-anchor="middle" x="359.5" y="-89.3" font-family="Times,serif" font-size="14.00">Slot 2</text>
<polyline fill="none" stroke="black" stroke-dasharray="5,2" points="384,-75 384,-111 "/>
<text text-anchor="middle" x="408.5" y="-89.3" font-family="Times,serif" font-size="14.00">Slot 3</text>
<text text-anchor="middle" x="189" y="-115.3" font-family="Times,serif" font-size="14.00">Shadow Memory</text>
</g>
<!-- appMem&#45;&gt;shadowWords0 -->
<g id="edge1" class="edge"><title>appMem:f0&#45;&gt;shadowWords0</title>
<path fill="none" stroke="black" d="M437,-167C403.209,-167 372.906,-140.178 354.278,-119.051"/>
<polygon fill="black" stroke="black" points="356.855,-116.678 347.727,-111.3 351.509,-121.197 356.855,-116.678"/>
</g>
<!-- shadowWords1 -->
<g id="node3" class="node"><title>shadowWords1</title>
<polygon fill="none" stroke="black" stroke-dasharray="5,2" points="451,-75 451,-111 531,-111 531,-75 451,-75"/>
<text text-anchor="middle" x="461" y="-89.3" font-family="Times,serif" font-size="14.00"> </text>
<polyline fill="none" stroke="black" stroke-dasharray="5,2" points="471,-75 471,-111 "/>
<text text-anchor="middle" x="481" y="-89.3" font-family="Times,serif" font-size="14.00"> </text>
<polyline fill="none" stroke="black" stroke-dasharray="5,2" points="491,-75 491,-111 "/>
<text text-anchor="middle" x="501" y="-89.3" font-family="Times,serif" font-size="14.00"> </text>
<polyline fill="none" stroke="black" stroke-dasharray="5,2" points="511,-75 511,-111 "/>
<text text-anchor="middle" x="521" y="-89.3" font-family="Times,serif" font-size="14.00"> </text>
</g>
<!-- appMem&#45;&gt;shadowWords1 -->
<g id="edge2" class="edge"><title>appMem:f1&#45;&gt;shadowWords1</title>
<path fill="none" stroke="black" d="M511,-148C511,-138.802 508.417,-129.242 505.108,-120.766"/>
<polygon fill="black" stroke="black" points="508.222,-119.154 501,-111.403 501.812,-121.966 508.222,-119.154"/>
</g>
<!-- shadowWords2 -->
<g id="node4" class="node"><title>shadowWords2</title>
<polygon fill="none" stroke="black" stroke-dasharray="5,2" points="549,-75 549,-111 629,-111 629,-75 549,-75"/>
<text text-anchor="middle" x="559" y="-89.3" font-family="Times,serif" font-size="14.00"> </text>
<polyline fill="none" stroke="black" stroke-dasharray="5,2" points="569,-75 569,-111 "/>
<text text-anchor="middle" x="579" y="-89.3" font-family="Times,serif" font-size="14.00"> </text>
<polyline fill="none" stroke="black" stroke-dasharray="5,2" points="589,-75 589,-111 "/>
<text text-anchor="middle" x="599" y="-89.3" font-family="Times,serif" font-size="14.00"> </text>
<polyline fill="none" stroke="black" stroke-dasharray="5,2" points="609,-75 609,-111 "/>
<text text-anchor="middle" x="619" y="-89.3" font-family="Times,serif" font-size="14.00"> </text>
</g>
<!-- appMem&#45;&gt;shadowWords2 -->
<g id="edge3" class="edge"><title>appMem:f2&#45;&gt;shadowWords2</title>
<path fill="none" stroke="black" d="M568,-148C568,-138.645 570.771,-128.961 574.301,-120.421"/>
<polygon fill="black" stroke="black" points="577.478,-121.889 578.5,-111.343 571.125,-118.95 577.478,-121.889"/>
</g>
<!-- shadowWords3 -->
<g id="node5" class="node"><title>shadowWords3</title>
<polygon fill="none" stroke="black" stroke-dasharray="5,2" points="647,-75 647,-111 727,-111 727,-75 647,-75"/>
<text text-anchor="middle" x="657" y="-89.3" font-family="Times,serif" font-size="14.00"> </text>
<polyline fill="none" stroke="black" stroke-dasharray="5,2" points="667,-75 667,-111 "/>
<text text-anchor="middle" x="677" y="-89.3" font-family="Times,serif" font-size="14.00"> </text>
<polyline fill="none" stroke="black" stroke-dasharray="5,2" points="687,-75 687,-111 "/>
<text text-anchor="middle" x="697" y="-89.3" font-family="Times,serif" font-size="14.00"> </text>
<polyline fill="none" stroke="black" stroke-dasharray="5,2" points="707,-75 707,-111 "/>
<text text-anchor="middle" x="717" y="-89.3" font-family="Times,serif" font-size="14.00"> </text>
</g>
<!-- appMem&#45;&gt;shadowWords3 -->
<g id="edge4" class="edge"><title>appMem:f3&#45;&gt;shadowWords3</title>
<path fill="none" stroke="black" d="M659,-167C679.321,-167 685.45,-142.035 687.037,-121.304"/>
<polygon fill="black" stroke="black" points="690.534,-121.451 687.499,-111.3 683.541,-121.128 690.534,-121.451"/>
</g>
<!-- shadowWordDetail -->
<g id="node6" class="node"><title>shadowWordDetail</title>
<polygon fill="none" stroke="black" points="129,-1 129,-37 393,-37 393,-1 129,-1"/>
<text text-anchor="middle" x="163.5" y="-15.3" font-family="Times,serif" font-size="14.00">ThreadID</text>
<polyline fill="none" stroke="black" points="198,-1 198,-37 "/>
<text text-anchor="middle" x="222.5" y="-15.3" font-family="Times,serif" font-size="14.00">Clock</text>
<polyline fill="none" stroke="black" points="247,-1 247,-37 "/>
<text text-anchor="middle" x="279" y="-15.3" font-family="Times,serif" font-size="14.00">IsWrite?</text>
<polyline fill="none" stroke="black" points="311,-1 311,-37 "/>
<text text-anchor="middle" x="332" y="-15.3" font-family="Times,serif" font-size="14.00">Start</text>
<polyline fill="none" stroke="black" points="353,-1 353,-37 "/>
<text text-anchor="middle" x="373" y="-15.3" font-family="Times,serif" font-size="14.00">Size</text>
<text text-anchor="middle" x="64.5" y="-41.3" font-family="Times,serif" font-size="14.00">Shadow Word (64 bits)</text>
</g>
<!-- shadowWords0&#45;&gt;shadowWordDetail -->
<g id="edge5" class="edge"><title>shadowWords0:f0&#45;&gt;shadowWordDetail</title>
<path fill="none" stroke="black" d="M261,-74C261,-65.2988 261,-55.809 261,-47.2461"/>
<polygon fill="black" stroke="black" points="264.5,-47.0245 261,-37.0246 257.5,-47.0246 264.5,-47.0245"/>
</g>
</g>
</svg>
