<?xml version="1.0" encoding="UTF-8" standalone="no"?>
<!DOCTYPE svg PUBLIC "-//W3C//DTD SVG 1.1//EN"
 "http://www.w3.org/Graphics/SVG/1.1/DTD/svg11.dtd">
<!-- Generated by graphviz version 2.36.0 (20140111.2315)
 -->
<!-- Title: Slices Pages: 1 -->
<svg width="207pt" height="135pt"
 viewBox="0.00 0.00 206.50 134.50" xmlns="http://www.w3.org/2000/svg" xmlns:xlink="http://www.w3.org/1999/xlink">
<g id="graph0" class="graph" transform="scale(1 1) rotate(0) translate(4 130.5)">
<title>Slices</title>
<polygon fill="white" stroke="none" points="-4,4 -4,-130.5 202.5,-130.5 202.5,4 -4,4"/>
<!-- array -->
<g id="node1" class="node"><title>array</title>
<polygon fill="none" stroke="black" points="32,-1 32,-37 147,-37 147,-1 32,-1"/>
<text text-anchor="middle" x="43.5" y="-15.3" font-family="Times,serif" font-size="14.00">0</text>
<polyline fill="none" stroke="black" points="55,-1 55,-37 "/>
<text text-anchor="middle" x="66.5" y="-15.3" font-family="Times,serif" font-size="14.00">1</text>
<polyline fill="none" stroke="black" points="78,-1 78,-37 "/>
<text text-anchor="middle" x="89.5" y="-15.3" font-family="Times,serif" font-size="14.00">3</text>
<polyline fill="none" stroke="black" points="101,-1 101,-37 "/>
<text text-anchor="middle" x="112.5" y="-15.3" font-family="Times,serif" font-size="14.00">4</text>
<polyline fill="none" stroke="black" points="124,-1 124,-37 "/>
<text text-anchor="middle" x="135.5" y="-15.3" font-family="Times,serif" font-size="14.00">5</text>
<text text-anchor="middle" x="16" y="-41.3" font-family="Times,serif" font-size="14.00">Array</text>
</g>
<!-- slice -->
<g id="node2" class="node"><title>slice</title>
<polygon fill="none" stroke="black" points="46.5,-75 46.5,-111 198.5,-111 198.5,-75 46.5,-75"/>
<text text-anchor="middle" x="66.5" y="-89.3" font-family="Times,serif" font-size="14.00">start</text>
<polyline fill="none" stroke="black" points="86.5,-75 86.5,-111 "/>
<text text-anchor="middle" x="111.5" y="-89.3" font-family="Times,serif" font-size="14.00">length</text>
<polyline fill="none" stroke="black" points="136.5,-75 136.5,-111 "/>
<text text-anchor="middle" x="167.5" y="-89.3" font-family="Times,serif" font-size="14.00">capacity</text>
<text text-anchor="middle" x="32.5" y="-115.3" font-family="Times,serif" font-size="14.00">Slice</text>
</g>
<!-- slice&#45;&gt;array -->
<g id="edge1" class="edge"><title>slice:f0&#45;&gt;array:f1</title>
<path fill="none" stroke="black" d="M66.5,-74C66.5,-62 66.5,-56.75 66.5,-48.125"/>
<polygon fill="black" stroke="black" points="70.0001,-48 66.5,-38 63.0001,-48 70.0001,-48"/>
</g>
</g>
</svg>
